<?xml version="1.0" standalone="no"?>
<!DOCTYPE svg PUBLIC "-//W3C//DTD SVG 20010904//EN"
 "http://www.w3.org/TR/2001/REC-SVG-20010904/DTD/svg10.dtd">
<svg version="1.0" xmlns="http://www.w3.org/2000/svg"
 width="512.000000pt" height="512.000000pt" viewBox="0 0 512.000000 512.000000"
 preserveAspectRatio="xMidYMid meet">
<metadata>
Created by potrace 1.14, written by Peter Selinger 2001-2017
</metadata>
<g transform="translate(0.000000,512.000000) scale(0.100000,-0.100000)"
fill="#000000" stroke="none">
<path d="M2478 4655 c-2 -2 -21 -6 -43 -9 -65 -10 -224 -54 -315 -88 -534
-195 -960 -610 -1168 -1138 -30 -76 -70 -204 -79 -249 -2 -13 -6 -27 -8 -31
-2 -4 -7 -29 -11 -56 -3 -27 -8 -52 -10 -55 -1 -3 -6 -26 -9 -52 -41 -299 -16
-599 72 -875 20 -62 24 -87 15 -90 -34 -11 -164 -106 -215 -157 -107 -105
-207 -289 -224 -410 -3 -25 -8 -45 -12 -46 -3 0 -24 -3 -46 -5 -252 -26 -432
-233 -420 -484 4 -91 20 -148 61 -218 63 -107 208 -204 329 -220 33 -4 449 -7
925 -6 797 1 870 2 934 19 128 33 223 85 318 173 l47 44 208 3 c205 3 234 5
343 27 30 6 62 12 70 13 30 4 177 48 265 80 508 183 947 612 1148 1120 69 176
125 406 112 463 -12 57 -81 97 -138 81 -17 -5 -77 -57 -150 -131 -284 -289
-614 -431 -1002 -432 -161 0 -196 3 -320 29 -296 62 -577 233 -790 480 -50 58
-146 207 -185 288 -41 85 -95 237 -105 296 -3 19 -7 37 -9 40 -2 3 -7 29 -10
56 -4 28 -9 66 -11 85 -7 50 -7 214 1 290 15 158 60 314 139 475 84 173 187
306 363 469 28 26 55 59 58 72 10 38 -4 89 -30 113 -21 20 -89 44 -98 36z
m-392 -389 c-14 -19 -26 -38 -26 -41 0 -4 -9 -19 -20 -35 -35 -50 -108 -204
-143 -307 -170 -488 -100 -1034 189 -1459 68 -102 160 -211 228 -274 21 -19
57 -52 80 -73 104 -95 344 -234 504 -291 75 -27 199 -60 267 -71 22 -4 51 -9
65 -12 14 -3 108 -6 210 -8 196 -3 303 10 469 56 139 39 334 127 450 204 29
20 55 34 57 32 5 -4 -80 -171 -119 -232 -109 -174 -302 -379 -467 -498 -148
-105 -432 -238 -582 -272 -146 -32 -231 -44 -374 -51 l-121 -7 18 69 c71 274
-49 586 -286 746 -153 103 -364 143 -539 103 l-66 -15 -42 41 c-112 108 -267
185 -438 214 -42 8 -206 9 -218 1 -16 -10 -29 10 -50 74 -62 187 -81 328 -77
560 2 180 5 221 21 290 3 14 8 39 11 55 13 78 80 272 132 381 153 319 397 588
687 755 63 36 188 99 197 99 5 0 -2 -15 -17 -34z m-619 -2436 c219 -77 368
-270 392 -509 9 -82 26 -122 59 -140 64 -34 134 -11 162 52 11 23 17 56 15 72
-2 17 -6 53 -9 80 -6 56 -37 170 -56 204 -15 29 -11 32 42 38 111 13 257 -45
349 -137 96 -95 138 -203 134 -340 -7 -229 -154 -397 -390 -446 -46 -10 -1166
-3 -1192 7 -87 32 -146 110 -158 209 -9 68 -16 83 -58 109 -45 28 -102 20
-141 -19 -40 -40 -43 -116 -9 -215 36 -107 43 -98 -82 -96 -99 1 -116 4 -165
29 -54 27 -104 84 -117 134 -15 56 -5 138 21 183 58 98 159 137 276 105 52
-14 88 -6 123 25 27 26 33 46 41 155 20 257 197 454 471 524 50 12 231 -2 292
-24z"/>
<path d="M1114 4410 c-36 -14 -64 -59 -64 -102 0 -122 162 -163 214 -54 20 42
20 69 2 105 -28 53 -93 75 -152 51z"/>
<path d="M3819 4405 c-163 -40 -331 -179 -387 -318 -13 -32 -19 -37 -36 -32
-44 13 -185 17 -235 6 -164 -35 -308 -171 -351 -330 -58 -218 53 -456 256
-547 96 -43 132 -44 898 -41 l731 2 64 23 c211 76 348 257 356 472 5 107 -7
166 -52 258 -65 133 -196 237 -347 276 -60 15 -178 16 -245 1 -28 -7 -37 -4
-48 11 -7 10 -34 40 -60 66 -103 107 -243 165 -395 166 -51 0 -118 -5 -149
-13z m213 -226 c111 -29 188 -90 239 -191 47 -92 102 -109 205 -61 223 102
455 -91 399 -332 -23 -99 -113 -191 -208 -211 -41 -9 -177 -12 -182 -4 -3 4 4
29 16 54 54 124 46 236 -20 270 -39 21 -70 23 -107 8 -38 -16 -61 -55 -70
-118 -9 -67 -40 -130 -80 -162 -70 -56 -81 -57 -570 -57 l-449 0 -45 23 c-85
44 -130 114 -131 205 -2 141 119 250 259 233 44 -5 79 -21 131 -60 40 -30 87
-34 131 -11 37 19 55 55 64 124 25 196 233 340 418 290z"/>
<path d="M413 4175 c-61 -26 -80 -106 -40 -166 44 -65 127 -69 180 -7 48 57
28 146 -38 174 -42 17 -61 17 -102 -1z"/>
<path d="M655 3596 c-48 -21 -69 -51 -69 -101 -1 -55 27 -95 78 -112 74 -25
148 31 148 112 0 79 -83 133 -157 101z"/>
<path d="M2624 2894 c-70 -34 -82 -128 -24 -186 31 -31 29 -31 227 -30 103 0
125 3 146 18 75 56 65 165 -18 200 -50 20 -289 19 -331 -2z"/>
<path d="M3323 2895 c-70 -30 -83 -134 -23 -187 16 -16 40 -28 53 -29 139 -6
969 -2 990 4 38 12 77 66 77 106 0 47 -27 91 -65 107 -50 20 -984 20 -1032 -1z"/>
<path d="M428 2320 c-102 -40 -104 -174 -4 -215 100 -41 195 72 139 166 -27
45 -89 68 -135 49z"/>
<path d="M4604 1383 c-59 -29 -82 -105 -47 -163 41 -70 138 -72 192 -4 69 88
-43 217 -145 167z"/>
</g>
</svg>
